<?xml version="1.0" encoding="utf-8"?>
<svg version="1.1" xmlns:xlink="http://www.w3.org/1999/xlink" width="82px" height="25px" xmlns="http://www.w3.org/2000/svg">
  <g transform="matrix(1 0 0 1 -818 -406 )">
    <path d="M 818 406  L 900 406  L 900 431  L 818 431  L 818 406  " fill-rule="nonzero" fill="#cccccc" stroke="none" />
    <path d="M 820 408  L 898 408  L 898 429  L 820 429  L 820 408  " fill-rule="nonzero" fill="#ffffff" stroke="none" />
    <path d="M 862.515 413.5  C 861.465 413.5  860.64 412.675  860.64 411.625  C 860.64 410.575  861.465 409.75  862.515 409.75  C 863.565 409.75  864.39 410.575  864.39 411.625  C 864.39 412.675  863.565 413.5  862.515 413.5  " fill-rule="nonzero" fill="#cccccc" stroke="none" />
    <path d="M 821 429  L 821 418  L 840.25 413  L 867.2 425.341463414634  L 882.6 416  L 898 425.341463414634  L 898 429  L 821 429  " fill-rule="nonzero" fill="#169bd5" stroke="none" />
  </g>
</svg>