<?xml version="1.0" encoding="utf-8"?>
<svg version="1.1" xmlns:xlink="http://www.w3.org/1999/xlink" width="142px" height="142px" xmlns="http://www.w3.org/2000/svg">
  <g transform="matrix(1 0 0 1 -396 -442 )">
    <path d="M 396 442  L 538 442  L 538 584  L 396 584  L 396 442  " fill-rule="nonzero" fill="#cccccc" stroke="none" />
    <path d="M 406 452  L 528 452  L 528 574  L 406 574  L 406 452  " fill-rule="nonzero" fill="#ffffff" stroke="none" />
    <path d="M 480.49 484.6  C 474.526 484.6  469.84 479.914  469.84 473.95  C 469.84 467.986  474.526 463.3  480.49 463.3  C 486.454 463.3  491.14 467.986  491.14 473.95  C 491.14 479.914  486.454 484.6  480.49 484.6  " fill-rule="nonzero" fill="#cccccc" stroke="none" />
    <path d="M 410 571  L 410 507.75  L 438.75 479  L 479 502  L 502 496.25  L 525 502  L 525 571  L 410 571  " fill-rule="nonzero" fill="#169bd5" stroke="none" />
  </g>
</svg>