<?xml version="1.0" encoding="utf-8"?>
<svg version="1.1" xmlns:xlink="http://www.w3.org/1999/xlink" width="74px" height="37px" xmlns="http://www.w3.org/2000/svg">
  <g transform="matrix(1 0 0 1 -1296 -10 )">
    <path d="M 1296 10  L 1370 10  L 1370 47  L 1296 47  L 1296 10  " fill-rule="nonzero" fill="#cccccc" stroke="none" />
    <path d="M 1299 13  L 1367 13  L 1367 44  L 1299 44  L 1299 13  " fill-rule="nonzero" fill="#ffffff" stroke="none" />
    <path d="M 1337.255 21.1  C 1335.701 21.1  1334.48 19.879  1334.48 18.325  C 1334.48 16.771  1335.701 15.55  1337.255 15.55  C 1338.809 15.55  1340.03 16.771  1340.03 18.325  C 1340.03 19.879  1338.809 21.1  1337.255 21.1  " fill-rule="nonzero" fill="#cccccc" stroke="none" />
    <path d="M 1300 43  L 1300 27.05  L 1316.5 19.8  L 1339.6 34.3  L 1352.8 24.15  L 1366 34.3  L 1366 43  L 1300 43  " fill-rule="nonzero" fill="#169bd5" stroke="none" />
  </g>
</svg>