<?xml version="1.0" encoding="utf-8"?>
<svg version="1.1" xmlns:xlink="http://www.w3.org/1999/xlink" width="75px" height="148px" xmlns="http://www.w3.org/2000/svg">
  <defs>
    <mask fill="white" id="clip19">
      <path d="M 52.7999999999993 26  L 38.4000000000015 0  L 24.444444444445 26  L 0 26  L 0 86.9877551020386  L 0 146.979310344829  L 75 148  L 75 86.9877551020386  L 75 26  L 52.7999999999993 26  Z " fill-rule="evenodd" />
    </mask>
  </defs>
  <g transform="matrix(1 0 0 1 -1438 -38 )">
    <path d="M 52.7999999999993 26  L 38.4000000000015 0  L 24.444444444445 26  L 0 26  L 0 86.9877551020386  L 0 146.979310344829  L 75 148  L 75 86.9877551020386  L 75 26  L 52.7999999999993 26  Z " fill-rule="nonzero" fill="#ffffff" stroke="none" transform="matrix(1 0 0 1 1438 38 )" />
    <path d="M 52.7999999999993 26  L 38.4000000000015 0  L 24.444444444445 26  L 0 26  L 0 86.9877551020386  L 0 146.979310344829  L 75 148  L 75 86.9877551020386  L 75 26  L 52.7999999999993 26  Z " stroke-width="2" stroke="#797979" fill="none" transform="matrix(1 0 0 1 1438 38 )" mask="url(#clip19)" />
  </g>
</svg>